<?xml version="1.0" encoding="utf-8"?>
<!-- Generator: Adobe Illustrator 25.3.0, SVG Export Plug-In . SVG Version: 6.00 Build 0)  -->
<!DOCTYPE svg PUBLIC "-//W3C//DTD SVG 1.1//EN" "http://www.w3.org/Graphics/SVG/1.1/DTD/svg11.dtd" [
	<!ENTITY ns_extend "http://ns.adobe.com/Extensibility/1.0/">
	<!ENTITY ns_ai "http://ns.adobe.com/AdobeIllustrator/10.0/">
	<!ENTITY ns_graphs "http://ns.adobe.com/Graphs/1.0/">
	<!ENTITY ns_vars "http://ns.adobe.com/Variables/1.0/">
	<!ENTITY ns_imrep "http://ns.adobe.com/ImageReplacement/1.0/">
	<!ENTITY ns_sfw "http://ns.adobe.com/SaveForWeb/1.0/">
	<!ENTITY ns_custom "http://ns.adobe.com/GenericCustomNamespace/1.0/">
	<!ENTITY ns_adobe_xpath "http://ns.adobe.com/XPath/1.0/">
]>
<svg version="1.1" id="Capa_1" xmlns:x="&ns_extend;" xmlns:i="&ns_ai;" xmlns:graph="&ns_graphs;"
	 xmlns="http://www.w3.org/2000/svg" xmlns:xlink="http://www.w3.org/1999/xlink" x="0px" y="0px" width="400px" height="72px"
	 viewBox="0 0 400 72" style="enable-background:new 0 0 400 72;" xml:space="preserve">
<style type="text/css">
	.st0{fill:#F9E000;}
	.st1{fill:#F33540;}
	.st2{fill:#FFFFFF;}
</style>
<metadata>
	<sfw  xmlns="&ns_sfw;">
		<slices></slices>
		<sliceSourceBounds  bottomLeftOrigin="true" height="66.4" width="395.7" x="-49.4" y="-80.7"></sliceSourceBounds>
	</sfw>
</metadata>
<g>
	<path d="M77.5,32.2l-2.7,2.6c-1.8-1.9-3.9-2.9-6.2-2.9c-1.9,0-3.6,0.7-4.9,2c-1.3,1.3-2,2.9-2,4.9c0,1.3,0.3,2.5,0.9,3.6
		c0.6,1,1.4,1.9,2.5,2.5c1.1,0.6,2.3,0.9,3.6,0.9c1.1,0,2.1-0.2,3.1-0.6c0.9-0.4,1.9-1.2,3-2.3l2.6,2.7c-1.5,1.5-2.9,2.5-4.2,3
		c-1.3,0.6-2.8,0.8-4.5,0.8c-3.1,0-5.7-1-7.7-3c-2-2-3-4.5-3-7.7c0-2,0.5-3.8,1.4-5.4c0.9-1.6,2.2-2.8,3.9-3.8
		c1.7-1,3.5-1.4,5.5-1.4c1.7,0,3.3,0.4,4.8,1.1C75,29.9,76.4,30.9,77.5,32.2"/>
	<path d="M87.5,33.5c1.4,0,2.7,0.4,4,1.1c1.2,0.7,2.2,1.7,2.9,2.9c0.7,1.2,1,2.5,1,3.9c0,1.4-0.4,2.7-1.1,4
		c-0.7,1.2-1.7,2.2-2.9,2.9c-1.2,0.7-2.5,1-4,1c-2.1,0-4-0.8-5.5-2.3c-1.5-1.5-2.3-3.4-2.3-5.6c0-2.3,0.9-4.3,2.6-5.8
		C83.8,34.2,85.5,33.5,87.5,33.5 M87.5,37.1c-1.2,0-2.1,0.4-2.9,1.2c-0.8,0.8-1.2,1.8-1.2,3.1c0,1.3,0.4,2.4,1.1,3.2
		c0.8,0.8,1.7,1.2,2.9,1.2c1.2,0,2.1-0.4,2.9-1.2c0.8-0.8,1.2-1.9,1.2-3.1s-0.4-2.3-1.1-3.1C89.7,37.5,88.7,37.1,87.5,37.1"/>
	<path d="M98.4,33.9h3.7v1.5c0.9-0.7,1.6-1.2,2.3-1.5c0.7-0.3,1.4-0.4,2.1-0.4c1.5,0,2.7,0.5,3.8,1.6c0.9,0.9,1.3,2.2,1.3,3.9v9.9
		H108v-6.5c0-1.8-0.1-3-0.2-3.6c-0.2-0.6-0.4-1-0.8-1.3c-0.4-0.3-0.9-0.5-1.5-0.5c-0.8,0-1.4,0.3-2,0.8c-0.5,0.5-0.9,1.2-1.1,2.1
		c-0.1,0.5-0.2,1.5-0.2,3v6h-3.7V33.9z"/>
	<path d="M124.5,36l-2.3,2.3c-0.9-0.9-1.8-1.4-2.6-1.4c-0.4,0-0.7,0.1-1,0.3c-0.2,0.2-0.4,0.4-0.4,0.7c0,0.2,0.1,0.4,0.2,0.6
		c0.2,0.2,0.5,0.4,1.1,0.7l1.4,0.7c1.4,0.7,2.4,1.4,3,2.2c0.5,0.7,0.8,1.6,0.8,2.6c0,1.3-0.5,2.4-1.5,3.3c-1,0.9-2.3,1.3-3.9,1.3
		c-2.2,0-3.9-0.9-5.2-2.6l2.3-2.5c0.4,0.5,1,0.9,1.5,1.2c0.6,0.3,1.1,0.5,1.6,0.5c0.5,0,0.9-0.1,1.2-0.4c0.3-0.2,0.5-0.5,0.5-0.8
		c0-0.6-0.5-1.1-1.6-1.7l-1.3-0.6c-2.4-1.2-3.6-2.7-3.6-4.6c0-1.2,0.5-2.2,1.4-3c0.9-0.8,2.1-1.3,3.5-1.3c1,0,1.9,0.2,2.7,0.6
		C123.1,34.6,123.9,35.2,124.5,36"/>
	<path d="M142.6,42.5h-12c0.2,1.1,0.6,1.9,1.4,2.5c0.8,0.6,1.7,0.9,2.9,0.9c1.4,0,2.6-0.5,3.6-1.5l3.2,1.5c-0.8,1.1-1.7,1.9-2.8,2.5
		c-1.1,0.5-2.4,0.8-3.9,0.8c-2.3,0-4.3-0.7-5.7-2.2c-1.5-1.5-2.2-3.3-2.2-5.6c0-2.3,0.7-4.2,2.2-5.7c1.5-1.5,3.3-2.3,5.5-2.3
		c2.4,0,4.3,0.8,5.7,2.3c1.5,1.5,2.2,3.5,2.2,6L142.6,42.5z M138.9,39.5c-0.2-0.8-0.7-1.5-1.5-2c-0.7-0.5-1.6-0.8-2.5-0.8
		c-1,0-2,0.3-2.7,0.9c-0.5,0.4-1,1-1.4,1.9H138.9z"/>
	<rect x="145.3" y="28.2" width="3.7" height="20.7"/>
	<path d="M152.4,28.2h3.7v7.3c0.7-0.6,1.5-1.1,2.2-1.4c0.7-0.3,1.5-0.5,2.3-0.5c1.5,0,2.7,0.5,3.7,1.5c0.9,0.9,1.3,2.2,1.3,3.9v9.9
		H162v-6.5c0-1.7-0.1-2.9-0.2-3.5c-0.2-0.6-0.4-1.1-0.8-1.4c-0.4-0.3-0.9-0.5-1.5-0.5c-0.8,0-1.4,0.3-2,0.8
		c-0.5,0.5-0.9,1.2-1.1,2.1c-0.1,0.5-0.2,1.5-0.2,3.1v6h-3.7V28.2z"/>
	<path d="M197.7,32l-2.7,2.7c-1.7-1.8-3.7-2.7-6-2.7c-2,0-3.7,0.7-5,2c-1.3,1.3-2,2.9-2,4.8c0,1.9,0.7,3.6,2.1,5
		c1.4,1.4,3.1,2,5.2,2c1.3,0,2.4-0.3,3.4-0.8c0.9-0.6,1.6-1.4,2.2-2.6h-5.8v-3.6h10.2l0,0.9c0,1.8-0.5,3.4-1.4,5
		c-0.9,1.6-2.1,2.8-3.6,3.6c-1.5,0.8-3.2,1.2-5.1,1.2c-2.1,0-4-0.5-5.6-1.4c-1.6-0.9-2.9-2.2-3.9-3.9c-1-1.7-1.4-3.5-1.4-5.4
		c0-2.7,0.9-5,2.6-7c2.1-2.4,4.8-3.5,8.2-3.5c1.8,0,3.4,0.3,4.9,1C195.2,29.7,196.4,30.6,197.7,32"/>
	<path d="M217.2,42.5h-12c0.2,1.1,0.6,1.9,1.4,2.5c0.8,0.6,1.7,0.9,2.9,0.9c1.4,0,2.6-0.5,3.6-1.5l3.2,1.5c-0.8,1.1-1.7,1.9-2.8,2.5
		c-1.1,0.5-2.4,0.8-3.9,0.8c-2.3,0-4.2-0.7-5.7-2.2c-1.5-1.5-2.2-3.3-2.2-5.6c0-2.3,0.7-4.2,2.2-5.7c1.5-1.5,3.3-2.3,5.5-2.3
		c2.4,0,4.3,0.8,5.7,2.3c1.5,1.5,2.2,3.5,2.2,6L217.2,42.5z M213.5,39.5c-0.2-0.8-0.7-1.5-1.5-2c-0.7-0.5-1.6-0.8-2.5-0.8
		c-1,0-2,0.3-2.8,0.9c-0.5,0.4-1,1-1.4,1.9H213.5z"/>
	<path d="M220.2,33.9h3.7v1.5c0.9-0.7,1.6-1.2,2.3-1.5c0.7-0.3,1.4-0.4,2.1-0.4c1.5,0,2.7,0.5,3.8,1.6c0.9,0.9,1.3,2.2,1.3,3.9v9.9
		h-3.7v-6.5c0-1.8-0.1-3-0.2-3.6c-0.2-0.6-0.4-1-0.8-1.3c-0.4-0.3-0.9-0.5-1.5-0.5c-0.8,0-1.4,0.3-2,0.8c-0.5,0.5-0.9,1.2-1.1,2.1
		c-0.1,0.5-0.2,1.5-0.2,3v6h-3.7V33.9z"/>
	<path d="M252.1,42.5h-12c0.2,1.1,0.6,1.9,1.4,2.5c0.8,0.6,1.7,0.9,2.9,0.9c1.4,0,2.6-0.5,3.6-1.5l3.2,1.5c-0.8,1.1-1.7,1.9-2.8,2.5
		c-1.1,0.5-2.4,0.8-3.9,0.8c-2.3,0-4.3-0.7-5.7-2.2c-1.5-1.5-2.2-3.3-2.2-5.6c0-2.3,0.7-4.2,2.2-5.7c1.5-1.5,3.3-2.3,5.5-2.3
		c2.4,0,4.3,0.8,5.7,2.3c1.5,1.5,2.2,3.5,2.2,6L252.1,42.5z M248.3,39.5c-0.2-0.8-0.7-1.5-1.5-2c-0.7-0.5-1.6-0.8-2.5-0.8
		c-1,0-2,0.3-2.8,0.9c-0.5,0.4-1,1-1.4,1.9H248.3z"/>
	<path d="M254.2,33.9h3.2v1.9c0.3-0.7,0.8-1.3,1.4-1.7c0.6-0.4,1.2-0.6,1.9-0.6c0.5,0,1,0.1,1.5,0.4l-1.2,3.2
		c-0.4-0.2-0.8-0.3-1.1-0.3c-0.6,0-1.1,0.4-1.5,1.1c-0.4,0.7-0.6,2.1-0.6,4.2l0,0.7v6h-3.7V33.9z"/>
	<path d="M275.1,33.9h3.7v14.9h-3.7v-1.6c-0.7,0.7-1.5,1.2-2.2,1.5c-0.7,0.3-1.5,0.5-2.4,0.5c-1.9,0-3.6-0.7-5-2.2
		c-1.4-1.5-2.1-3.4-2.1-5.6c0-2.3,0.7-4.2,2-5.7c1.4-1.5,3-2.2,5-2.2c0.9,0,1.7,0.2,2.5,0.5c0.8,0.3,1.5,0.8,2.2,1.5V33.9z
		 M271.2,37c-1.2,0-2.1,0.4-2.9,1.2c-0.8,0.8-1.1,1.9-1.1,3.2c0,1.3,0.4,2.4,1.2,3.2c0.8,0.8,1.7,1.2,2.9,1.2c1.2,0,2.2-0.4,2.9-1.2
		c0.8-0.8,1.2-1.9,1.2-3.2c0-1.3-0.4-2.4-1.2-3.2C273.3,37.4,272.4,37,271.2,37"/>
	<path d="M282.6,33.9h3.8v7.2c0,1.4,0.1,2.4,0.3,2.9c0.2,0.5,0.5,1,0.9,1.3c0.4,0.3,1,0.5,1.6,0.5c0.6,0,1.2-0.1,1.6-0.4
		c0.4-0.3,0.8-0.7,1-1.3c0.2-0.4,0.2-1.3,0.2-2.8v-7.3h3.7v6.3c0,2.6-0.2,4.4-0.6,5.4c-0.5,1.2-1.2,2.1-2.2,2.7
		c-1,0.6-2.2,0.9-3.7,0.9c-1.6,0-3-0.4-4-1.1c-1-0.7-1.7-1.8-2.1-3.1c-0.3-0.9-0.4-2.6-0.4-4.9V33.9z"/>
	<path d="M320.9,28.2h3.7v20.7h-3.7v-1.6c-0.7,0.7-1.5,1.2-2.2,1.5c-0.7,0.3-1.5,0.5-2.4,0.5c-1.9,0-3.6-0.7-5-2.2
		c-1.4-1.5-2.1-3.4-2.1-5.6c0-2.3,0.7-4.2,2-5.7c1.4-1.5,3-2.2,5-2.2c0.9,0,1.7,0.2,2.5,0.5c0.8,0.3,1.5,0.8,2.2,1.5V28.2z
		 M316.9,37c-1.2,0-2.1,0.4-2.9,1.2c-0.8,0.8-1.1,1.9-1.1,3.2c0,1.3,0.4,2.4,1.2,3.2c0.8,0.8,1.7,1.2,2.9,1.2c1.2,0,2.2-0.4,2.9-1.2
		c0.8-0.8,1.2-1.9,1.2-3.2c0-1.3-0.4-2.4-1.2-3.2C319.1,37.4,318.1,37,316.9,37"/>
	<path d="M328.6,28.2h3.5V30c0,1.2-0.2,2.2-0.4,3.1c-0.3,0.9-0.8,1.8-1.5,2.7l-1.3-1.1c0.3-0.5,0.6-0.9,0.7-1.3
		c0.2-0.4,0.3-0.8,0.5-1.4h-1.4V28.2z"/>
	<path d="M342.8,28.7h3.9l7.8,20.2h-4l-1.6-4.2h-8.2l-1.6,4.2h-4L342.8,28.7z M344.8,34l-2.7,6.9h5.4L344.8,34z"/>
	<path d="M356.2,33.9h3.2v1.9c0.3-0.7,0.8-1.3,1.4-1.7c0.6-0.4,1.2-0.6,1.9-0.6c0.5,0,1,0.1,1.5,0.4l-1.2,3.2
		c-0.4-0.2-0.8-0.3-1.1-0.3c-0.6,0-1.1,0.4-1.5,1.1c-0.4,0.7-0.6,2.1-0.6,4.2l0,0.7v6h-3.7V33.9z"/>
	<path d="M377.1,33.9h3.7v14.9h-3.7v-1.6c-0.7,0.7-1.5,1.2-2.2,1.5c-0.7,0.3-1.5,0.5-2.4,0.5c-1.9,0-3.6-0.7-5-2.2
		c-1.4-1.5-2.1-3.4-2.1-5.6c0-2.3,0.7-4.2,2-5.7c1.4-1.5,3-2.2,5-2.2c0.9,0,1.7,0.2,2.5,0.5c0.8,0.3,1.5,0.8,2.2,1.5V33.9z
		 M373.1,37c-1.2,0-2.1,0.4-2.9,1.2c-0.8,0.8-1.1,1.9-1.1,3.2c0,1.3,0.4,2.4,1.2,3.2c0.8,0.8,1.7,1.2,2.9,1.2c1.2,0,2.2-0.4,2.9-1.2
		c0.8-0.8,1.2-1.9,1.2-3.2c0-1.3-0.4-2.4-1.2-3.2C375.3,37.4,374.3,37,373.1,37"/>
	<path d="M384.6,33.9h3.7v1.5c0.9-0.7,1.6-1.2,2.3-1.5s1.4-0.4,2.1-0.4c1.5,0,2.7,0.5,3.8,1.6c0.9,0.9,1.3,2.2,1.3,3.9v9.9h-3.7
		v-6.5c0-1.8-0.1-3-0.2-3.6c-0.2-0.6-0.4-1-0.8-1.3c-0.4-0.3-0.9-0.5-1.5-0.5c-0.8,0-1.4,0.3-2,0.8c-0.5,0.5-0.9,1.2-1.1,2.1
		c-0.1,0.5-0.2,1.5-0.2,3v6h-3.7V33.9z"/>
	<path class="st0" d="M49.5,4.4c-0.2-0.2-0.4-0.3-0.6-0.3c-0.4,0-0.6,0.3-0.6,0.3L48,4.6c-0.2,0.2-0.5,0.2-0.7,0.1L47,4.6
		c-0.3-0.1-0.6-0.1-0.8,0.1C46,4.9,45.9,5.2,46,5.5l0.2,0.7c0,0.2,0.1,0.3,0.1,0.5c0,0.4-0.3,0.7-0.5,0.8c-0.3,0.1-0.6,0.1-0.9-0.3
		l-0.7-1l-0.3-0.7c-0.1-0.3-0.4-0.4-0.7-0.4c-0.3,0-0.5,0.2-0.7,0.5l-0.1,0.2c-0.1,0.2-0.3,0.4-0.6,0.4h-0.6c-0.3,0-0.5,0.1-0.6,0.4
		c-0.1,0.2-0.1,0.5,0.1,0.7l0.4,0.4c0.2,0.2,0.2,0.5,0.1,0.7l-0.1,0.2c-0.1,0.3-0.1,0.6,0.1,0.8c0.2,0.2,0.5,0.3,0.8,0.2l1.5-0.3
		l0.3,0c0.4,0,0.7,0.2,0.8,0.5c0.1,0.2,0.1,0.6-0.2,0.9c-0.1,0.1-0.3,0.2-0.4,0.3l-0.7,0.3c-0.3,0.1-0.4,0.4-0.4,0.7
		c0,0.3,0.2,0.5,0.5,0.7l0.2,0.1c0.1,0,0.2,0.1,0.3,0.2c-1.3,0.9-2.6,1.3-3.8,1.1c-1.5-0.2-2.7-1.1-3.3-1.8c0.1,0,0.2-0.1,0.3-0.2
		c0.2-0.2,0.3-0.4,0.3-0.6l0-0.4c0-0.2,0-0.5-0.2-0.7c-0.2-0.2-0.4-0.3-0.6-0.3l-0.3,0c0.8-0.3,1.4-1.1,1.4-2c0-1.1-0.9-2.1-2.1-2.1
		c-1.2,0-2.1,0.9-2.1,2.1c0,0.8,0.4,1.5,1.1,1.8l-0.4,0c-0.2,0-0.5,0-0.7,0.2c-0.2,0.2-0.3,0.4-0.3,0.6l0,0.4c0,0.4,0.2,0.8,0.6,1
		c-3.2,1.5-5.6,0.1-6.7-0.9c0,0,0.1,0,0.1,0l0.2,0c0.3,0,0.6-0.1,0.7-0.4c0.1-0.3,0.1-0.6-0.1-0.8l-0.5-0.6
		c-0.1-0.1-0.2-0.3-0.3-0.5c-0.2-0.4,0-0.7,0.2-0.9c0.2-0.2,0.5-0.3,0.9-0.1l1.6,1c0.2,0.2,0.5,0.2,0.8,0.1c0.3-0.1,0.4-0.4,0.4-0.7
		l0-0.2c0-0.3,0.1-0.5,0.4-0.6l0.5-0.2c0.2-0.1,0.4-0.3,0.4-0.6s-0.1-0.5-0.4-0.6l-0.5-0.2c-0.2-0.1-0.4-0.4-0.4-0.6l0-0.2
		c0-0.3-0.1-0.6-0.4-0.7c-0.3-0.1-0.6-0.1-0.8,0.1l-0.6,0.5l-0.7,0.5l-0.3,0.2c-0.4,0.2-0.7,0.1-0.9-0.1c-0.2-0.2-0.4-0.5-0.2-0.9
		c0.1-0.2,0.2-0.3,0.3-0.5l0.5-0.6c0.2-0.2,0.2-0.5,0.1-0.8c-0.1-0.3-0.4-0.4-0.7-0.4l-0.2,0c-0.3,0-0.5-0.1-0.6-0.4l-0.2-0.5
		c-0.1-0.2-0.3-0.4-0.6-0.4c-0.2,0-0.5,0.1-0.6,0.4l-0.2,0.5c-0.1,0.2-0.4,0.4-0.6,0.4l-0.2,0c-0.3,0-0.6,0.2-0.7,0.4
		c-0.1,0.3-0.1,0.6,0.1,0.8l0.5,0.6c0.1,0.1,0.2,0.3,0.3,0.5c0.2,0.4,0,0.7-0.2,0.9c-0.2,0.2-0.5,0.3-0.9,0.1l-0.3-0.1L22,4.6
		c-0.2-0.2-0.5-0.2-0.8-0.1c-0.3,0.1-0.4,0.4-0.4,0.7l0,0.2c0,0.3-0.1,0.5-0.4,0.6l-0.5,0.2c-0.2,0.1-0.4,0.3-0.4,0.6
		s0.1,0.5,0.4,0.6l0.5,0.2c0.2,0.1,0.4,0.4,0.4,0.6l0,0.2c0,0.3,0.1,0.6,0.4,0.7c0.3,0.1,0.6,0.1,0.8-0.1l0.6-0.5l0.3-0.2l0.6-0.4
		c0.4-0.2,0.7-0.1,0.9,0.1c0.2,0.2,0.4,0.5,0.2,0.9c-0.1,0.2-0.2,0.3-0.3,0.5l-0.5,0.6c-0.2,0.2-0.2,0.5-0.1,0.8
		c0.1,0.3,0.4,0.4,0.7,0.4l0.2,0c0.1,0,0.1,0,0.2,0c-1.1,0.9-3.4,2.4-6.6,0.9c0.2,0,0.3-0.1,0.4-0.3c0.2-0.2,0.2-0.4,0.2-0.7l0-0.4
		c0-0.2-0.1-0.5-0.3-0.6c-0.2-0.2-0.4-0.2-0.7-0.2l-0.4,0c0.7-0.4,1.1-1,1.1-1.8c0-1.1-0.9-2.1-2.1-2.1c-1.1,0-2.1,0.9-2.1,2.1
		c0,0.9,0.6,1.7,1.4,2l-0.3,0c-0.2,0-0.5,0.1-0.6,0.3c-0.2,0.2-0.2,0.4-0.2,0.7l0,0.4c0,0.4,0.3,0.7,0.6,0.8
		c-0.7,0.7-1.9,1.6-3.4,1.8c-1.3,0.2-2.6-0.2-3.9-1.1C7.9,13,8,12.9,8.2,12.8l0.2-0.1c0.3-0.1,0.5-0.4,0.5-0.7
		c0-0.3-0.1-0.6-0.4-0.7l-0.7-0.3c-0.2-0.1-0.3-0.2-0.4-0.3C7,10.5,7,10.1,7.1,9.9c0.1-0.3,0.4-0.5,0.8-0.5l1.8,0.3
		c0.3,0.1,0.6,0,0.8-0.2c0.2-0.2,0.2-0.5,0.1-0.8l-0.1-0.2c-0.1-0.2-0.1-0.5,0.1-0.7L11,7.3c0.2-0.2,0.2-0.4,0.1-0.7
		c-0.1-0.2-0.3-0.4-0.6-0.4H10c-0.3,0-0.5-0.2-0.6-0.4L9.3,5.7C9.2,5.4,8.9,5.2,8.7,5.2C8.4,5.2,8.1,5.3,8,5.6L7.6,6.2L7.2,7L7,7.2
		C6.7,7.6,6.4,7.6,6.1,7.5C5.8,7.4,5.6,7.2,5.6,6.7c0-0.2,0-0.3,0.1-0.5l0.2-0.7c0.1-0.3,0-0.6-0.2-0.8C5.4,4.5,5.1,4.5,4.8,4.6
		L4.6,4.7C4.4,4.9,4.1,4.8,3.9,4.6L3.6,4.4c0,0-0.3-0.3-0.6-0.3c-0.2,0-0.4,0.1-0.6,0.3C2.2,4.6,2.1,4.9,2.2,5.2
		C2.4,6,2.7,6.5,2.7,6.5L3.8,9C3.7,9.2,3.6,9.5,3.6,9.8c0,0.8,0.6,1.4,1.3,1.4l1,2.1l0.2,0.3v0l1.7,3.3c-0.2,0.1-0.3,0.2-0.3,0.2
		c-0.6,0.3-0.8,1.1-0.5,1.7c0.2,0.4,0.6,0.7,1.1,0.7c0.2,0,0.4,0,0.6-0.2c0,0,0.1-0.1,0.4-0.2c0.1,0.1,0.3,0.2,0.4,0.4c0,0,0,0,0,0
		c0.2,0.4,0.1,0.9,0.1,1.1c-0.2,0.1-0.4,0.1-0.4,0.1c-0.6,0.2-0.9,0.8-0.7,1.4c0.2,0.4,0.6,0.7,1,0.7c0.1,0,0.3,0,0.4-0.1
		c0.1,0,14.1-4.9,32.2,0c0.6,0.2,1.2-0.2,1.4-0.8c0.1-0.3,0-0.6-0.1-0.8c-0.1-0.3-0.4-0.4-0.7-0.5c-0.1,0-0.1,0-0.2-0.1
		c0-0.1,0-0.1,0-0.2c0-0.1,0-0.3,0-0.4c0,0,0-0.1,0-0.1c0.1-0.5,0.4-0.9,0.5-1c0.1,0,0.3,0.1,0.4,0.1c0.3,0.1,0.7,0.1,1,0
		c0.3-0.1,0.5-0.4,0.7-0.7c0.1-0.3,0.1-0.7,0-1c-0.1-0.3-0.4-0.5-0.7-0.7c-0.1,0-0.2-0.1-0.4-0.1l1.8-3c0,0,0,0,0-0.1
		c0-0.1,0.1-0.1,0.1-0.2l0.1-0.3l0.9-1.9c0.8,0,1.4-0.6,1.4-1.4c0-0.3-0.1-0.6-0.3-0.9l1.2-2.4c0,0,0.3-0.5,0.5-1.4
		C49.7,4.9,49.7,4.6,49.5,4.4 M43.1,18.9L43.1,18.9L43.1,18.9C43.1,18.9,43.1,18.9,43.1,18.9"/>
	<path d="M25.9,5.4c-0.8,0-1.4,0.6-1.4,1.4c0,0.8,0.6,1.4,1.4,1.4c0.8,0,1.4-0.6,1.4-1.4C27.4,6.1,26.7,5.4,25.9,5.4 M25.9,7.9
		c-0.6,0-1.1-0.5-1.1-1.1c0-0.6,0.5-1.1,1.1-1.1c0.6,0,1.1,0.5,1.1,1.1C27,7.5,26.5,7.9,25.9,7.9"/>
	<path d="M49.5,4.4c-0.2-0.2-0.4-0.3-0.6-0.3c-0.4,0-0.6,0.3-0.6,0.3L48,4.6c-0.2,0.2-0.5,0.2-0.7,0.1L47,4.6
		c-0.3-0.1-0.6-0.1-0.8,0.1C46,4.9,45.9,5.2,46,5.5l0.2,0.7c0,0.2,0.1,0.3,0.1,0.5c0,0.4-0.3,0.7-0.5,0.8c-0.3,0.1-0.6,0.1-0.9-0.3
		l-0.7-1l-0.3-0.7c-0.1-0.3-0.4-0.4-0.7-0.4c-0.3,0-0.5,0.2-0.7,0.5l-0.1,0.2c-0.1,0.2-0.3,0.4-0.6,0.4h-0.6c-0.3,0-0.5,0.1-0.6,0.4
		c-0.1,0.2-0.1,0.5,0.1,0.7l0.4,0.4c0.2,0.2,0.2,0.5,0.1,0.7l-0.1,0.2c-0.1,0.3-0.1,0.6,0.1,0.8c0.2,0.2,0.5,0.3,0.8,0.2l1.5-0.3
		l0.3,0c0.4,0,0.7,0.2,0.8,0.5c0.1,0.2,0.1,0.6-0.2,0.9c-0.1,0.1-0.3,0.2-0.4,0.3l-0.7,0.3c-0.3,0.1-0.4,0.4-0.4,0.7
		c0,0.3,0.2,0.5,0.5,0.7l0.2,0.1c0.1,0,0.2,0.1,0.3,0.2c-1.3,0.9-2.6,1.3-3.8,1.1c-1.5-0.2-2.7-1.1-3.3-1.8c0.1,0,0.2-0.1,0.3-0.2
		c0.2-0.2,0.3-0.4,0.3-0.6l0-0.4c0-0.2,0-0.5-0.2-0.7s-0.4-0.3-0.6-0.3l-0.3,0c0.8-0.3,1.4-1.1,1.4-2c0-1.1-0.9-2.1-2.1-2.1
		c-1.2,0-2.1,0.9-2.1,2.1c0,0.8,0.4,1.5,1.1,1.8l-0.4,0c-0.2,0-0.5,0-0.7,0.2c-0.2,0.2-0.3,0.4-0.3,0.6l0,0.4c0,0.4,0.2,0.8,0.6,1
		c-3.2,1.5-5.6,0.1-6.7-0.9c0,0,0.1,0,0.1,0l0.2,0c0.3,0,0.6-0.1,0.7-0.4c0.1-0.3,0.1-0.6-0.1-0.8l-0.5-0.6
		c-0.1-0.1-0.2-0.3-0.3-0.5c-0.2-0.4,0-0.7,0.2-0.9c0.2-0.2,0.5-0.3,0.9-0.1l1.6,1c0.2,0.2,0.5,0.2,0.8,0.1c0.3-0.1,0.4-0.4,0.4-0.7
		l0-0.2c0-0.3,0.1-0.5,0.4-0.6l0.5-0.2c0.2-0.1,0.4-0.3,0.4-0.6s-0.1-0.5-0.4-0.6l-0.5-0.2c-0.2-0.1-0.4-0.4-0.4-0.6l0-0.2
		c0-0.3-0.1-0.6-0.4-0.7c-0.3-0.1-0.6-0.1-0.8,0.1l-0.6,0.5l-0.7,0.5l-0.3,0.2c-0.4,0.2-0.7,0.1-0.9-0.1c-0.2-0.2-0.4-0.5-0.2-0.9
		c0.1-0.2,0.2-0.3,0.3-0.5l0.5-0.6c0.2-0.2,0.2-0.5,0.1-0.8c-0.1-0.3-0.4-0.4-0.7-0.4l-0.2,0c-0.3,0-0.5-0.1-0.6-0.4l-0.2-0.5
		c-0.1-0.2-0.3-0.4-0.6-0.4c-0.2,0-0.5,0.1-0.6,0.4l-0.2,0.5c-0.1,0.2-0.4,0.4-0.6,0.4l-0.2,0c-0.3,0-0.6,0.1-0.7,0.4
		c-0.1,0.3-0.1,0.6,0.1,0.8l0.5,0.6c0.1,0.1,0.2,0.3,0.3,0.5c0.2,0.4,0,0.7-0.2,0.9c-0.2,0.2-0.5,0.3-0.9,0.1l-0.3-0.1L22,4.6
		c-0.2-0.2-0.5-0.2-0.8-0.1c-0.3,0.1-0.4,0.4-0.4,0.7l0,0.2c0,0.3-0.1,0.5-0.4,0.6l-0.5,0.2c-0.2,0.1-0.4,0.3-0.4,0.6
		s0.1,0.5,0.4,0.6l0.5,0.2c0.2,0.1,0.4,0.3,0.4,0.6l0,0.2c0,0.3,0.1,0.6,0.4,0.7c0.3,0.1,0.6,0.1,0.8-0.1l0.6-0.5l0.3-0.2l0.6-0.4
		c0.4-0.2,0.7-0.1,0.9,0.1c0.2,0.2,0.4,0.5,0.2,0.9c-0.1,0.2-0.2,0.3-0.3,0.5l-0.5,0.6c-0.2,0.2-0.2,0.5-0.1,0.8
		c0.1,0.3,0.4,0.4,0.7,0.4l0.2,0c0.1,0,0.1,0,0.2,0c-1.1,0.9-3.4,2.4-6.6,0.9c0.2,0,0.3-0.1,0.4-0.3c0.2-0.2,0.2-0.4,0.2-0.7l0-0.4
		c0-0.2-0.1-0.5-0.3-0.6c-0.2-0.2-0.4-0.2-0.7-0.2l-0.4,0c0.7-0.4,1.1-1,1.1-1.8c0-1.1-0.9-2.1-2.1-2.1c-1.1,0-2.1,0.9-2.1,2.1
		c0,0.9,0.6,1.7,1.4,2l-0.3,0c-0.2,0-0.5,0.1-0.6,0.3c-0.2,0.2-0.2,0.4-0.2,0.7l0,0.4c0,0.4,0.3,0.7,0.6,0.8
		c-0.7,0.7-1.9,1.6-3.4,1.8c-1.3,0.2-2.6-0.2-3.9-1.1C7.9,13,8,12.9,8.2,12.8l0.2-0.1c0.3-0.1,0.5-0.4,0.5-0.7
		c0-0.3-0.1-0.6-0.4-0.7l-0.7-0.3c-0.2-0.1-0.3-0.2-0.4-0.3C7,10.5,7,10.1,7.1,9.9c0.1-0.3,0.4-0.5,0.8-0.5l1.8,0.3
		c0.3,0.1,0.6,0,0.8-0.2c0.2-0.2,0.2-0.5,0.1-0.8l-0.1-0.2c-0.1-0.2-0.1-0.5,0.1-0.7L11,7.3c0.2-0.2,0.2-0.4,0.1-0.7
		c-0.1-0.2-0.3-0.4-0.6-0.4H10c-0.3,0-0.5-0.2-0.6-0.4L9.3,5.7C9.2,5.4,8.9,5.2,8.7,5.2C8.4,5.2,8.1,5.3,8,5.6L7.6,6.2L7.2,7L7,7.2
		C6.7,7.6,6.4,7.6,6.1,7.5C5.8,7.4,5.6,7.2,5.6,6.7c0-0.2,0-0.3,0.1-0.5l0.2-0.7c0.1-0.3,0-0.6-0.2-0.8C5.4,4.5,5.1,4.5,4.8,4.6
		L4.6,4.7C4.4,4.9,4.1,4.8,3.9,4.6L3.6,4.4c0,0-0.3-0.3-0.6-0.3c-0.2,0-0.4,0.1-0.6,0.3C2.2,4.6,2.1,4.9,2.2,5.2
		C2.4,6,2.7,6.5,2.7,6.5L3.8,9C3.7,9.2,3.6,9.5,3.6,9.8c0,0.8,0.6,1.4,1.3,1.4l1,2.1l0.2,0.3v0l1.7,3.3c-0.2,0.1-0.3,0.2-0.3,0.2
		c-0.6,0.3-0.8,1.1-0.5,1.7c0.2,0.4,0.6,0.7,1.1,0.7c0.2,0,0.4,0,0.6-0.1c0,0,0.1-0.1,0.4-0.2c0.1,0.1,0.3,0.2,0.4,0.4c0,0,0,0,0,0
		c0.2,0.4,0.1,0.9,0.1,1.1c-0.2,0.1-0.4,0.1-0.4,0.1c-0.6,0.2-0.9,0.8-0.7,1.4c0.2,0.4,0.6,0.7,1,0.7c0.1,0,0.3,0,0.4-0.1
		c0.1-0.1,14.1-4.9,32.2,0c0.6,0.2,1.2-0.2,1.4-0.8c0.1-0.3,0-0.6-0.1-0.8c-0.1-0.3-0.4-0.4-0.7-0.5c-0.1,0-0.1,0-0.2-0.1
		c0-0.1,0-0.1,0-0.2c0-0.1,0-0.3,0-0.4c0,0,0-0.1,0-0.1c0.1-0.5,0.4-0.9,0.5-1c0.1,0,0.3,0.1,0.4,0.1c0.3,0.1,0.7,0.1,1,0
		c0.3-0.1,0.5-0.4,0.7-0.7c0.1-0.3,0.1-0.7,0-1c-0.1-0.3-0.4-0.5-0.7-0.7c-0.1,0-0.2-0.1-0.4-0.1l1.8-3c0,0,0,0,0-0.1
		c0-0.1,0.1-0.1,0.1-0.2l0.1-0.3l0.9-1.9c0.8,0,1.4-0.6,1.4-1.4c0-0.3-0.1-0.6-0.3-0.9l1.2-2.4c0,0,0.3-0.5,0.5-1.4
		C49.7,4.9,49.7,4.6,49.5,4.4 M34,8.3c0-1,0.8-1.8,1.8-1.8c1,0,1.7,0.8,1.7,1.8c0,1-0.8,1.7-1.7,1.7C34.8,10,34,9.2,34,8.3
		 M33.8,11.7c-0.1-0.1-0.1-0.3-0.1-0.4l0-0.4c0-0.2,0.1-0.3,0.2-0.4c0.1-0.1,0.3-0.1,0.4-0.1l2.4,0.2c0.2,0,0.3,0.1,0.4,0.2
		c0.1,0.1,0.1,0.3,0.1,0.4l0,0.4c0,0.2-0.1,0.3-0.2,0.4c-0.1,0.1-0.3,0.1-0.4,0.1h0l-0.1,0l-1.9-0.2l-0.3,0
		C34,11.9,33.9,11.8,33.8,11.7 M14.5,8.3c0-1,0.8-1.8,1.8-1.8S18,7.3,18,8.3c0,1-0.8,1.7-1.7,1.7S14.5,9.2,14.5,8.3 M14.9,11.6
		l0-0.4c0-0.2,0-0.3,0.1-0.4c0.1-0.1,0.2-0.2,0.4-0.2l2.4-0.2h0c0.3,0,0.5,0.2,0.6,0.5l0,0.4c0,0.1,0,0.3-0.1,0.4
		c-0.1,0.1-0.2,0.2-0.4,0.2l-0.3,0L17,12l-1.5,0.1h0C15.1,12.1,14.9,11.9,14.9,11.6 M4.9,10.9c-0.6,0-1-0.5-1-1.1
		c0-0.6,0.5-1.1,1.1-1.1h0c0.6,0,1.1,0.5,1.1,1.1C6.1,10.4,5.6,10.9,4.9,10.9C5,10.9,5,10.9,4.9,10.9 M6.8,14.3
		C6.8,14.3,6.8,14.3,6.8,14.3c0.6,0.5,1.3,0.8,1.9,1.1c0.7,0.3,1.3,0.4,2,0.5c-1.2,0.4-2,0.7-2.6,0.9c0,0,0,0,0,0L6.8,14.3z
		 M42.6,21.1c0.2,0.1,0.4,0.2,0.5,0.4c0.1,0.2,0.1,0.4,0.1,0.6c-0.1,0.4-0.5,0.7-1,0.5c-18.2-5-32.3-0.1-32.4,0
		c-0.4,0.1-0.9-0.1-1-0.5c-0.1-0.2-0.1-0.4,0-0.6c0.1-0.2,0.2-0.3,0.4-0.4c0,0,0.2-0.1,0.3-0.1c0,0,0.1,0,0.1,0c0,0,0,0,0,0
		c0,0,0,0,0,0c0,0,0.1,0,0.1,0c0.2-0.1,0.4-0.1,0.6-0.2h0c0.3-0.1,0.6-0.2,0.9-0.3c0,0,0,0,0,0c1.2-0.3,3-0.7,5.2-1
		c0.1,0,0.2,0,0.4-0.1c0,0,0.1,0,0.1,0c2.4-0.3,5.2-0.6,8.4-0.6c0.1,0,0.2,0,0.3,0c0,0,0,0,0,0c0,0,0,0,0,0c0,0,0,0,0,0c0,0,0,0,0,0
		c0,0,0,0,0,0c0,0,0,0,0,0c0,0,0,0,0,0c1,0,2.1,0,3.1,0.1c0,0,0,0,0,0c3.1,0.2,6.5,0.6,10.1,1.4h0c0.4,0.1,0.7,0.2,1.1,0.3h0
		c0.3,0.1,0.7,0.2,1,0.3h0c0.3,0.1,0.6,0.2,0.9,0.2c0,0,0,0,0,0C42.4,21,42.5,21,42.6,21.1 M42.2,19.9c0,0.1,0,0.2-0.1,0.4
		c0,0.1,0,0.2,0,0.3h0c-6-1.6-11.5-2.2-16.2-2.2l0,0c-3.1-0.2-6.5,0.2-9.5,0.7c0,0-0.1,0-0.1,0c-3.1,0.5-5.4,1.1-6.5,1.4
		c0.1-0.4,0-0.8-0.1-1c0,0,0,0,0-0.1c-0.1-0.2-0.2-0.3-0.3-0.5c1.9-0.8,7.3-2.6,16.5-2.5c0.1,0,9.7,0,16.7,2.4
		C42.5,19.1,42.3,19.4,42.2,19.9 M43.1,18.9L43.1,18.9L43.1,18.9C43.1,18.9,43.1,18.9,43.1,18.9 M44.2,17.1c0.2,0.1,0.4,0.3,0.5,0.5
		c0.1,0.2,0.1,0.5,0,0.7c-0.1,0.2-0.3,0.4-0.5,0.5c-0.2,0.1-0.5,0.1-0.7,0c-0.1,0-0.2-0.1-0.4-0.1c0,0-0.1,0-0.1,0
		c0,0-0.1,0-0.2-0.1c-7-2.5-16.8-2.4-16.9-2.4C16.4,16,10.8,18,9.1,18.7l0,0c-0.1,0-0.1,0-0.1,0.1c-0.1,0-0.1,0-0.2,0.1
		C8.6,18.9,8.5,19,8.5,19c-0.4,0.2-1,0.1-1.3-0.4c-0.2-0.5-0.1-1,0.4-1.3c0,0,0.1-0.1,0.3-0.2c0,0,0.1,0,0.2-0.1c0,0,0.1,0,0.1-0.1
		c0.7-0.3,2-0.8,3.8-1.3c0,0,0,0,0,0c0.2,0,0.4-0.1,0.6-0.1c0,0,0,0,0.1,0h0c0.2,0,0.3-0.1,0.5-0.1c0,0,0,0,0,0
		c1.9-0.4,4.4-0.8,7.4-1.1h0c0.2,0,0.4,0,0.6,0c0,0,0.1,0,0.1,0h0c0.1,0,0.2,0,0.3,0c0,0,0,0,0,0c1-0.1,2.1-0.1,3.2-0.1
		c0.3,0,0.7,0,1,0c0.3,0,6.8,0,13.2,1.3c0,0,0,0,0,0c0.1,0,0.3,0.1,0.4,0.1c0,0,0,0,0,0h0l0,0c0,0,0.1,0,0.1,0
		c1.3,0.3,2.5,0.6,3.7,1.1c0,0,0.1,0,0.2,0.1c0,0,0.1,0,0.2,0.1C43.9,17,44.1,17,44.2,17.1 M14.5,14.9c0.9-0.5,1.6-1.2,2-1.6
		c0.9,0.5,1.7,0.8,2.5,1C17.3,14.4,15.9,14.6,14.5,14.9 M23.3,14c1.2-0.5,2.2-1.2,2.7-1.7c0.6,0.5,1.6,1.3,2.9,1.7
		C27.2,14,26.1,14,26,14C25,13.9,24.1,14,23.3,14 M32.6,14.3c0.9-0.2,1.8-0.5,2.8-1.1c0.5,0.5,1.2,1.2,2.2,1.8
		C35.8,14.7,34.1,14.4,32.6,14.3 M43.6,16.5c-0.8-0.3-1.5-0.5-2.3-0.7c1.2-0.1,2.4-0.6,3.6-1.4L43.6,16.5z M46.9,10.9L46.9,10.9
		c-0.6,0-1.1-0.5-1.1-1.1c0-0.1,0-0.2,0-0.3c0,0,0-0.1,0-0.1c0,0,0-0.1,0.1-0.1c0-0.1,0.1-0.1,0.1-0.2c0,0,0-0.1,0.1-0.1
		c0.2-0.2,0.5-0.3,0.8-0.3c0.1,0,0.1,0,0.2,0c0.1,0,0.1,0,0.2,0.1c0,0,0.1,0,0.1,0c0,0,0.1,0,0.1,0.1c0,0,0.1,0,0.1,0.1
		c0,0,0.1,0,0.1,0.1l0,0C47.9,9.2,48,9.5,48,9.8C48,10.4,47.5,10.9,46.9,10.9 M48.9,6.4l-0.4,0.9V5.9h-0.3v1.4l-0.8-1.3L47.2,6
		L47,6.1l1.1,1.7l-0.4,0.8c-0.1-0.1-0.2-0.1-0.3-0.2c-0.1,0-0.1,0-0.2-0.1c0,0-0.1,0-0.1,0h0c0,0-0.1,0-0.1,0c-0.1,0-0.1,0-0.2,0
		c-0.1,0-0.1,0-0.2,0c0,0-0.1,0-0.1,0c-0.1,0-0.3,0.1-0.4,0.1c-0.1,0-0.1,0.1-0.2,0.1c0,0-0.1,0.1-0.1,0.1c0,0,0,0,0,0
		c0,0-0.1,0.1-0.1,0.1c0,0-0.1,0.1-0.1,0.1c0,0-0.1,0.1-0.1,0.1c0,0.1-0.1,0.2-0.1,0.3c0,0.1,0,0.1,0,0.2c0,0.1,0,0.1,0,0.2v0.1
		c0,0,0,0,0,0.1c0,0,0,0.1,0,0.1c0,0,0,0.1,0,0.1c0,0.1,0,0.1,0.1,0.2c0,0.1,0,0.1,0.1,0.2c0,0,0,0.1,0.1,0.1c0,0,0.1,0.1,0.1,0.1
		l0.1,0.1c0.2,0.2,0.4,0.3,0.7,0.4v0l-1,2.1l0,0c0,0.1-0.1,0.2-0.1,0.2v0c-0.1,0.1-0.1,0.1-0.1,0.1c-0.1,0.1-0.1,0.1-0.2,0.2
		c-0.7,0.5-1.4,0.9-2.1,1.2c-0.8,0.3-1.5,0.5-2.3,0.5c-0.1,0-0.2,0-0.3,0c-0.1,0-0.3,0-0.4,0h0c0,0-0.1,0-0.1,0
		c-0.1,0-0.2,0-0.3-0.1c0,0,0,0,0,0c-0.1,0-0.1,0-0.2,0c0,0-0.1,0-0.1,0c0,0,0,0,0,0v0h0c-0.2-0.1-0.5-0.1-0.7-0.2
		c-0.8-0.3-1.5-0.8-2-1.2c-0.2-0.2-0.4-0.4-0.6-0.6l0,0c-0.2-0.2-0.3-0.3-0.4-0.4l0,0l-0.1-0.1l-0.1,0.1l0,0
		c-0.2,0.1-0.4,0.2-0.6,0.3c0,0,0,0,0,0c-0.3,0.2-0.6,0.3-0.9,0.4c-0.5,0.2-1.1,0.3-1.5,0.4c-0.3,0.1-0.6,0.1-0.9,0.1h0
		c-0.3,0-0.7,0-1-0.1h0c-0.2,0-0.5-0.1-0.7-0.1c-1-0.2-1.9-0.7-2.5-1.1c-0.2-0.2-0.4-0.3-0.6-0.5c-0.2-0.1-0.3-0.2-0.4-0.4l0,0
		L26,11.9l-0.1,0.1l0,0c-0.1,0.1-0.3,0.2-0.4,0.4h0c-0.2,0.2-0.4,0.3-0.7,0.5c-0.6,0.4-1.4,0.8-2.3,1.1C22.3,13.9,22,14,21.8,14h0
		c0,0,0,0-0.1,0c0,0,0,0,0,0c-0.1,0-0.3,0-0.4,0h0c0,0,0,0,0,0c-0.2,0-0.4,0-0.5,0c0,0-0.1,0-0.1,0h0c-0.2,0-0.4,0-0.7,0
		c-0.6-0.1-1.2-0.2-1.9-0.5h0c-0.3-0.1-0.5-0.2-0.8-0.4c0,0,0,0,0,0c-0.2-0.1-0.4-0.2-0.5-0.3l0,0l-0.1-0.1l-0.1,0.1l0,0
		c-0.1,0.1-0.3,0.3-0.5,0.5l0,0c-0.3,0.2-0.5,0.5-0.9,0.8c-0.3,0.2-0.6,0.4-1,0.6c0,0,0,0,0,0c-0.3,0.2-0.6,0.3-1,0.4c0,0,0,0,0,0
		c0,0,0,0,0,0c0,0,0,0,0,0c-0.2,0.1-0.5,0.1-0.7,0.2c-0.1,0-0.2,0-0.3,0.1h0c0,0,0,0,0,0c0,0-0.1,0-0.1,0c-0.3,0-0.5,0-0.8,0
		c-1.4,0-2.9-0.5-4.3-1.6c-0.1-0.1-0.2-0.2-0.3-0.3l0,0c0,0-0.1-0.1-0.1-0.1l0-0.1l-1.1-2.3c0.7-0.1,1.2-0.7,1.2-1.4
		C6.4,9,5.8,8.4,5,8.4H4.9c-0.3,0-0.6,0.1-0.9,0.3l-0.5-1c0,0,0.1,0,0.1-0.1l1.1-1.7L4.7,5.8L4.5,5.7L3.7,7V5.6H3.4v1.6L3,6.4
		c0,0-0.3-0.5-0.5-1.2c0-0.3,0.1-0.4,0.1-0.5c0.1-0.1,0.2-0.2,0.3-0.2c0.2,0,0.4,0.2,0.4,0.2l0.3,0.3C4,5.1,4.4,5.2,4.8,5L5,4.9
		c0.1-0.1,0.3,0,0.4,0.1c0.1,0.1,0.2,0.3,0.1,0.4L5.3,6.1C5.3,6.3,5.3,6.5,5.2,6.7c0,0.5,0.3,0.9,0.7,1.1c0.5,0.2,1,0,1.3-0.4l0.7-1
		l0.3-0.7c0.1-0.1,0.2-0.2,0.4-0.2c0.2,0,0.3,0.1,0.4,0.3L9.1,6C9.2,6.4,9.6,6.6,10,6.6h0.6c0.1,0,0.2,0.1,0.3,0.2
		c0,0.1,0,0.2-0.1,0.3l-0.4,0.4c-0.3,0.3-0.3,0.7-0.2,1.1l0.1,0.2c0.1,0.2,0,0.3-0.1,0.4C10.2,9.4,10,9.4,9.8,9.4L8.3,9.1L8,9.1
		C7.5,9,7,9.3,6.8,9.8c-0.2,0.5-0.1,1,0.3,1.3c0.2,0.1,0.3,0.2,0.5,0.3l0.7,0.3c0.1,0.1,0.2,0.2,0.2,0.4c0,0.2-0.1,0.3-0.3,0.4
		L8,12.5c-0.2,0.1-0.4,0.3-0.5,0.5l-0.1,0.1l0.1,0.1c1.4,1,2.8,1.5,4.2,1.3c1.8-0.2,3.1-1.4,3.8-2.1l1.9-0.1c3.8,2,6.6,0.1,7.7-0.9
		l0.2-0.1l-0.2-0.1C24.9,11,24.7,11,24.5,11l-0.2,0c-0.2,0-0.3-0.1-0.4-0.2c-0.1-0.2-0.1-0.3,0.1-0.4l0.5-0.6
		c0.1-0.2,0.2-0.3,0.3-0.5c0.2-0.4,0.1-1-0.2-1.3c-0.4-0.3-0.9-0.4-1.3-0.1l-0.6,0.4l-0.3,0.2l-0.6,0.5c-0.1,0.1-0.3,0.1-0.4,0
		c-0.1-0.1-0.2-0.2-0.2-0.4l0-0.2c0-0.4-0.2-0.8-0.6-0.9L20,7.1c-0.1,0-0.2-0.1-0.2-0.3c0-0.1,0.1-0.2,0.2-0.3l0.5-0.2
		c0.4-0.2,0.6-0.5,0.6-0.9l0-0.2c0-0.2,0.1-0.3,0.2-0.4c0.1-0.1,0.3-0.1,0.4,0.1l1.2,1L23.2,6c0.4,0.2,0.9,0.2,1.3-0.1
		C24.9,5.5,25,5,24.8,4.6c-0.1-0.2-0.2-0.4-0.3-0.5L24,3.5c-0.1-0.1-0.1-0.3-0.1-0.4c0.1-0.1,0.2-0.2,0.4-0.2l0.2,0
		c0.4,0,0.8-0.2,0.9-0.6l0.2-0.5c0.1-0.2,0.4-0.2,0.5,0l0.2,0.5c0.2,0.4,0.5,0.6,0.9,0.6l0.2,0c0.2,0,0.3,0.1,0.4,0.2
		c0.1,0.1,0.1,0.3-0.1,0.4L27.5,4c-0.1,0.2-0.2,0.3-0.3,0.5c-0.2,0.4-0.1,1,0.2,1.3c0.4,0.3,0.9,0.4,1.3,0.1l1-0.7l0.6-0.5
		c0.1-0.1,0.3-0.1,0.4-0.1C30.9,4.9,31,5,31,5.2l0,0.2c0,0.4,0.2,0.8,0.6,0.9l0.5,0.2c0.1,0,0.2,0.1,0.2,0.3c0,0.1-0.1,0.2-0.2,0.3
		l-0.5,0.2C31.2,7.5,31,7.9,31,8.3l0,0.2c0,0.2-0.1,0.3-0.2,0.4c-0.2,0.1-0.3,0.1-0.5-0.1L29,8l-0.3-0.2c-0.4-0.2-0.9-0.2-1.3,0.1
		c-0.4,0.3-0.5,0.8-0.2,1.3c0.1,0.2,0.2,0.4,0.3,0.5l0.5,0.6c0.1,0.1,0.1,0.3,0.1,0.4c-0.1,0.2-0.2,0.2-0.4,0.2l-0.2,0
		c-0.2,0-0.4,0-0.5,0.1l-0.2,0.1l0.2,0.2c1,1,3.8,3,7.7,0.9l1.9,0.2c0.7,0.7,2,1.9,3.7,2.1c1.4,0.2,2.8-0.2,4.2-1.3l0.1-0.1l0-0.1
		c-0.1-0.2-0.3-0.4-0.5-0.5l-0.2-0.1c-0.2-0.1-0.3-0.2-0.3-0.4c0-0.2,0.1-0.3,0.2-0.4l0.7-0.3c0.2-0.1,0.3-0.2,0.5-0.3
		c0.4-0.3,0.5-0.8,0.3-1.3c-0.2-0.5-0.6-0.7-1.1-0.7l-0.3,0L42,9.4c-0.2,0-0.3,0-0.4-0.1c-0.1-0.1-0.1-0.3-0.1-0.4l0.1-0.2
		c0.2-0.4,0.1-0.8-0.2-1.1l-0.4-0.4C41,7,41,6.9,41,6.8c0-0.1,0.1-0.2,0.3-0.2h0.6c0.4,0,0.8-0.2,0.9-0.6l0.1-0.2
		c0.1-0.2,0.2-0.3,0.4-0.3c0.2,0,0.3,0.1,0.4,0.2l0.3,0.7l0.5,0.7l0.2,0.3c0.3,0.4,0.8,0.5,1.3,0.4c0.5-0.2,0.8-0.6,0.7-1.1
		c0-0.2,0-0.4-0.1-0.6l-0.2-0.7c0-0.2,0-0.3,0.1-0.4c0.1-0.1,0.3-0.1,0.4-0.1L47.1,5c0.4,0.2,0.8,0.1,1.1-0.2l0.3-0.3
		c0,0,0.2-0.2,0.4-0.2h0c0.1,0,0.2,0.1,0.3,0.2c0.1,0.1,0.2,0.3,0.2,0.5C49.1,5.9,48.9,6.4,48.9,6.4"/>
	<polygon points="30.8,7 29.7,7 30.5,7.8 30.2,8 29.3,7 27.8,7 27.8,6.7 29.3,6.7 30.2,5.8 30.4,6 29.8,6.7 30.8,6.7 	"/>
	<polygon points="8.6,8.1 9.5,8.4 9.5,8.6 9.4,8.7 8.2,8.3 7,8.8 7,8.7 7,8.7 6.9,8.5 8.1,8 8.6,6.7 8.7,6.7 8.9,6.8 8.5,7.8 
		9.8,7.2 9.9,7.4 9.9,7.5 	"/>
	<polygon points="45.1,8.5 45,8.8 43.6,8.2 42.4,8.6 42.3,8.3 43.2,8 42.2,7.5 42.4,7.2 43.3,7.7 43,6.7 43.3,6.5 43.8,7.9 	"/>
	<polygon points="27.1,3.4 26.1,4.3 26.1,4.8 25.8,4.8 25.8,4.3 24.8,3.5 25,3.2 25.8,3.9 25.8,2.6 26.1,2.6 26.1,3.9 26.9,3.2 	"/>
	<polygon points="27.1,10.1 26.9,10.4 26.1,9.7 26.1,11 25.8,11 25.8,9.7 25,10.4 24.8,10.2 25.8,9.3 25.8,8.8 26.1,8.8 26.1,9.3 	
		"/>
	<polygon points="23.9,6.7 23.9,7.1 22.4,7.1 21.5,8 21.3,7.7 21.9,7.1 20.8,7.1 20.8,6.7 21.9,6.7 21.2,6 21.4,5.7 22.4,6.7 	"/>
	<path d="M6.9,24.4v23c0,2.3,0.3,4.4,0.9,6.4c0.8,2.6,1.9,4.9,3.5,6.8c1.2,1.5,2.6,2.7,4.1,3.8c1.3,0.9,2.8,1.6,4.4,2.1
		c1.2,0.4,2.5,0.7,3.8,1c0.1,0,0.2,0,0.3,0l0.1,0c0.7,0.1,1.3,0.1,2,0.1c0.7,0,1.3,0,2-0.1c0.1,0,0.2,0,0.2,0l0.1,0
		c1.5-0.2,2.9-0.5,4.1-1c1.6-0.5,3-1.3,4.4-2.2c1.6-1.1,3-2.4,4.1-3.9c1.4-1.8,2.4-3.9,3.2-6.1c0.6-1.8,0.9-3.7,0.9-5.7V24.4H6.9z
		 M7.3,24.7h37.4v19.2H7.3V24.7z M44.6,48.5c0,1.9-0.3,3.8-0.9,5.6c-0.7,2.2-1.7,4.2-3,5.9c0,0-0.1,0.1-0.1,0.1
		c-1.1,1.5-2.5,2.8-4,3.8c0,0,0,0-0.1,0c-1.3,0.9-2.7,1.6-4.3,2.1c0,0,0,0,0,0c-1.3,0.4-2.6,0.8-4.1,1h0l-0.1,0c-0.1,0-0.2,0-0.2,0
		c-1.3,0.2-2.6,0.2-3.9,0l-0.1,0c-0.1,0-0.2,0-0.3,0c-1.3-0.2-2.5-0.5-3.7-0.9c0,0-0.1,0-0.1,0c-1.5-0.5-2.9-1.2-4.2-2.1
		c0,0-0.1-0.1-0.1-0.1c-1.5-1-2.8-2.2-4-3.6c-0.1-0.1-0.1-0.1-0.2-0.2c-1.4-1.9-2.5-4.1-3.2-6.5c-0.6-1.9-0.8-4.1-0.8-6.3v-3.2h37.4
		V48.5z"/>
	<path class="st0" d="M44.6,44.2v4.3c0,1.9-0.3,3.8-0.9,5.6c-0.7,2.2-1.7,4.2-3,5.9c0,0-0.1,0.1-0.1,0.1c-1.1,1.5-2.5,2.8-4,3.8
		c0,0,0,0-0.1,0c-1.3,0.9-2.7,1.6-4.3,2.1c0,0,0,0,0,0c-1.3,0.4-2.6,0.8-4.1,1h0l-0.1,0c-0.1,0-0.2,0-0.2,0c-1.3,0.2-2.6,0.2-3.9,0
		l-0.1,0c-0.1,0-0.2,0-0.3,0c-1.3-0.2-2.5-0.5-3.7-0.9c0,0-0.1,0-0.1,0c-1.5-0.5-2.9-1.2-4.2-2.1c0,0-0.1-0.1-0.1-0.1
		c-1.5-1-2.8-2.2-4-3.6c-0.1-0.1-0.1-0.1-0.2-0.2c-1.4-1.9-2.5-4.1-3.2-6.5c-0.6-1.9-0.8-4.1-0.8-6.3v-3.2H44.6z"/>
	<path class="st1" d="M15.5,44.2V64c-1.5-1-2.8-2.2-4-3.6c-0.1-0.1-0.1-0.1-0.2-0.2V44.2H15.5z"/>
	<path class="st1" d="M23.9,44.2v22.9c-0.1,0-0.2,0-0.3,0c-1.3-0.2-2.5-0.5-3.7-0.9c0,0-0.1,0-0.1,0V44.2H23.9z"/>
	<path class="st1" d="M32.3,44.2v21.9c0,0,0,0,0,0c-1.3,0.4-2.6,0.8-4.1,1h0V44.2H32.3z"/>
	<path class="st1" d="M40.8,44.2V60c0,0-0.1,0.1-0.1,0.1c-1.1,1.5-2.5,2.8-4,3.8V44.2H40.8z"/>
	<rect x="7.3" y="24.7" class="st2" width="37.4" height="19.2"/>
	<path d="M34.4,28.8c-1.8,0-3.3,1.9-3.7,4.4H14.4c-0.5,0-0.9,0.4-0.9,0.9c0,0.5,0.4,0.9,0.9,0.9h0.8v4.4h2.6v-0.9h-1.1v-1.1h1.1
		v-1.1h1.1v1.1H20v1.1h-1.1v0.9h2.6v-4.4h9.2c0.3,2.7,1.8,4.7,3.7,4.7c2.1,0,3.7-2.4,3.7-5.5C38.1,31.2,36.5,28.8,34.4,28.8
		 M34.4,38.2c-0.6,0-1.2-0.5-1.6-1.4c-0.7-2.6,0.8-2.5,0.8-2.5c-1.6-0.2-0.9-2.4-0.9-2.4c0.4-1,1.1-1.5,1.7-1.5c1,0,2.2,1.6,2.2,3.9
		C36.5,36.6,35.4,38.2,34.4,38.2"/>
</g>
</svg>
